inDegrees=yes
name=ik_S49_A09_T01
DataType=double
version=3
OpenSimVersion=4.3-2021-08-27-4bc7ad9
endheader
time	pelvis_tilt	pelvis_list	pelvis_rotation	pelvis_tx	pelvis_ty	pelvis_tz	hip_flexion_r	hip_adduction_r	hip_rotation_r	knee_angle_r	knee_angle_r_beta	ankle_angle_r	subtalar_angle_r	mtp_angle_r	hip_flexion_l	hip_adduction_l	hip_rotation_l	knee_angle_l	knee_angle_l_beta	ankle_angle_l	subtalar_angle_l	mtp_angle_l	lumbar_extension	lumbar_bending	lumbar_rotation	arm_flex_r	arm_add_r	arm_rot_r	elbow_flex_r	pro_sup_r	wrist_flex_r	wrist_dev_r	arm_flex_l	arm_add_l	arm_rot_l	elbow_flex_l	pro_sup_l	wrist_flex_l	wrist_dev_l
0	0	0	0	0	0.9399999999999999	0	0	0	0	0	0	0	0	0	0	0	0	0	0	0	0	0	0	0	0	0	0	0	0	89.99999999963507	0	0	0	0	0	0	89.99999999869995	0	0
0.02	-9.714204741660424	-4.614673106586974	23.26898219236075	0	0.9399999999999999	0	3.716183520326804	-1.717438538496616	-1.249009182220934	5.732181223837554	0.1000454356769634	0	0	0	3.716183520326804	-1.717438538496616	-1.249009182220934	5.732181223837554	0.1000454356769634	0	0	0	-9.122237376109775	-3.103728961131238	4.118658628621263	44.68653636007886	-5.166487563705749	3.270186615121521	30.447208938023	122.8534348721554	0	0	48.20542267483282	-13.8572681335004	21.14836384392082	21.25721071871905	116.2005729599677	0	0
0.04	-9.608201461061819	-4.785735928097802	23.33868083653153	0	0.9399999999999999	0	42.27063253768625	-10.75169169128477	-10.33937474116978	54.83438009114452	0.9570404758805001	0	0	0	42.27063253768625	-10.75169169128477	-10.33937474116978	54.83438009114452	0.9570404758805001	0	0	0	-9.133509145941863	-2.889608253059075	4.053521547582356	44.6437322512289	-5.127997392491595	3.291987396078021	30.51430451429802	122.8600167396201	0	0	48.19220219330247	-13.895212771079	21.1290206030238	21.24404779863631	116.1932532706082	0	0
0.06	-9.60797105556013	-4.783793353406935	23.34022579387602	0	0.9399999999999999	0	42.2747359024104	-10.74816684003908	-10.33830494262957	54.83454998951272	0.9570434411664192	0	0	0	42.2747359024104	-10.74816684003908	-10.33830494262957	54.83454998951272	0.9570434411664192	0	0	0	-9.134137546800646	-2.885751918355876	4.051829035963311	44.63788428963304	-5.112984614871972	3.294894787796142	30.54032429542265	122.8328118598854	0	0	48.17886545899771	-13.89278409738148	21.13459939012489	21.2645082438382	116.1794509718284	0	0
0.08	-9.604500672701706	-4.785351535389611	23.3353159467787	0	0.9399999999999999	0	42.2821769873655	-10.74485307122403	-10.33685701647626	54.83488040451206	0.9570492079960554	0	0	0	42.2821769873655	-10.74485307122403	-10.33685701647626	54.83488040451206	0.9570492079960554	0	0	0	-9.134697272414353	-2.88407497343289	4.045990610956641	44.63235394402307	-5.111948928296025	3.293990166901438	30.54765192270388	122.8003931256359	0	0	48.18062275898944	-13.91945072981351	21.11061406498793	21.25325707310957	116.1687130801036	0	0
0.1	-9.603071601021224	-4.779892870487898	23.32088964200471	0	0.9399999999999999	0	42.2855148174672	-10.74250652607601	-10.33607357975831	54.83502268337052	0.9570516912305915	2.290505406926083e-35	0	0	42.2855148174672	-10.74250652607601	-10.33607357975831	54.83502268337052	0.9570516912305915	2.290505406926083e-35	0	0	-9.132742768869365	-2.8774561318585	4.04303226262089	44.63175448380406	-5.087765980868146	3.240825053362536	30.54350169412251	122.8214104713181	0	0	48.17800647659347	-13.92625949459006	21.09688567322375	21.23896502064316	116.1807605079679	0	0
0.12	-9.598378982794429	-4.782824913051097	23.33926208345162	0	0.9399999999999999	0	42.28931134721344	-10.74144925646955	-10.33544175627498	54.83519661912825	0.9570547269822509	1.835223672246802e-51	0	0	42.28931134721344	-10.74144925646955	-10.33544175627498	54.83519661912825	0.9570547269822509	1.835223672246802e-51	0	0	-9.132029236301348	-2.877755245937152	4.030611095427577	44.62859394875243	-5.067919866178181	3.165692892269337	30.53559541816895	122.8146150030432	0	-5.38806921148701e-36	48.18431881587792	-13.93596949379988	21.02229969650501	21.20764255659157	116.2033002241948	0	-5.38806921148701e-36
0.14	-9.600178171084908	-4.775667966885845	23.32869915415176	0	0.9399999999999999	0	42.29309910490964	-10.73841464643312	-10.33449119375802	54.8353551745595	0.9570574942965731	0	0	0	42.29309910490964	-10.73841464643312	-10.33449119375802	54.8353551745595	0.9570574942965731	0	0	0	-9.132634966381916	-2.867754009783564	4.026009359873173	44.64812932205636	-5.063312361055374	3.167573708140267	30.55207221570501	122.8205676484497	0	0	48.17313958165883	-13.93416495334579	21.01736629823627	21.23006810025228	116.2329898742339	0	0
0.16	-9.600939357739504	-4.772532723614099	23.33436561111273	0	0.9399999999999999	0	42.29889182559231	-10.73383173226765	-10.33304295693196	54.83559773267232	0.9570617277342693	0	0	0	42.29889182559231	-10.73383173226765	-10.33304295693196	54.83559773267232	0.9570617277342693	0	0	0	-9.134715750735534	-2.860820992256297	4.02045272681521	44.6354967291119	-5.065450958427407	3.169137722426431	30.59276153358455	122.7929298281642	0	0	48.19058354821264	-13.96747642651089	21.00999318488564	21.29472913370106	116.2362841223496	0	0
0.18	-9.598043347976036	-4.774645140310344	23.3229984833691	0	0.9399999999999999	0	42.30281331984181	-10.73204727131547	-10.33227095806111	54.83577162776077	0.9570647627761159	0	0	0	42.30281331984181	-10.73204727131547	-10.33227095806111	54.83577162776077	0.9570647627761159	0	0	0	-9.134289592536842	-2.860801134945754	4.01410412162867	44.65126488681283	-5.032962752059663	3.17241236042865	30.57640622434895	122.7902253259169	0	0	48.18705615739103	-13.97647040050414	20.99694466681841	21.27584683634779	116.2608922489345	0	0
0.2	-9.601076434625504	-4.774516278190482	23.32802302589336	0	0.9399999999999999	0	42.30620814484904	-10.72919230177387	-10.3313977237812	54.83591284151996	0.9570672274211628	0	0	0	42.30620814484904	-10.72919230177387	-10.3313977237812	54.83591284151996	0.9570672274211628	0	0	0	-9.138330470480746	-2.85778933703182	4.013209814433701	44.65284703330582	-5.025051504595601	3.170484279441484	30.57709384524732	122.7725335918729	0	0	48.19746711130457	-14.00385657305179	21.01489588471006	21.27781907186989	116.251888377772	0	0
